# xmcd
#
# Track frame offsets:
#	150
#	10070
#	22837
#	33060
#	42184
#	51429
#	60619
#	67179
#	77627
#	88595
#	101415
#	112547
#	123059
#	134174
#	145022
#	157767
#	166640
#	178932
#	191237
#	200179
#	208701
#	217506
#	227252
#	235266
#	246677
#
# Disc length: 3444 seconds
#
# Revision: 2
# Processed by: cddbd v1.5.2PL0 Copyright (c) Steve Scherf et al.
# Submitted via: EasyCDDAExtractor 10.0.6.1
#
DISCID=490d7219
DTITLE=Various Artist - Rockin' Bones: 1950's Punk and Rockabilly CD2 (Rhino 20
DTITLE=06)
DYEAR=2006
DGENRE=Rockabilly
TTITLE0=Buddy Holly - Rock Around With Ollie Vee
TTITLE1=Darrell Rhodes - Lou Lou  [trailer]
TTITLE2=Art Adams - Rock Crazy Baby
TTITLE3=Jimmy Edwards - Love Bug Crawl
TTITLE4=Pat Ferguson - Fool I Am
TTITLE5=Bob Luman - Red Hot
TTITLE6=Jerry Lott ('The Phantom') - Love Me
TTITLE7=Kip Tyler - She's My Witch
TTITLE8=Tommy Blake - Lordy Hoody
TTITLE9=String Kings - Bloodshot  [trailer]
TTITLE10=Jackie DeShannon - Trouble
TTITLE11=Ronnie Pearson - Hot Shot
TTITLE12=Pat Cupp - Long Gone Daddy
TTITLE13=Steve Carl - Curfew
TTITLE14=Carl Perkins - Put Your Cat Clothes On
TTITLE15=Sonny Fisher - Pink And Black
TTITLE16=Roy Orbison - Domino  [trailer]
TTITLE17=Hank Mizell - Jungle Rock
TTITLE18=Warren Smith - Ubangi Stomp
TTITLE19=Hasil Adkins - Chicken Walk
TTITLE20=Fat Daddy Holmes - Chicken Rock
TTITLE21=Bob And Lucille - Eeny-Meeny-Miney-Moe
TTITLE22=Bobby Lee Trammell - Shirley Lee
TTITLE23=Gene Vincent - Woman Love
TTITLE24=Elvis Presley - One Knight Of Sin
EXTD=YEAR: 2006
EXTT0=
EXTT1=
EXTT2=
EXTT3=
EXTT4=
EXTT5=
EXTT6=
EXTT7=
EXTT8=
EXTT9=
EXTT10=
EXTT11=
EXTT12=
EXTT13=
EXTT14=
EXTT15=
EXTT16=
EXTT17=
EXTT18=
EXTT19=
EXTT20=
EXTT21=
EXTT22=
EXTT23=
EXTT24=
PLAYORDER=
